<svg width="47" height="44" viewBox="0 0 47 44" fill="none" xmlns="http://www.w3.org/2000/svg">
<path opacity="0.4" fill-rule="evenodd" clip-rule="evenodd" d="M22.5859 0L42.1731 8.52125L47 17.8021L42.8375 30.6075L31.5584 44L12.5018 41.5573L0 26.9058L4.1914 12.1695L22.5859 0ZM23.0925 1.30854L22.5408 10.9257L10.9945 21.582L13.1167 29.1988L37.3373 25.1556L41.2276 9.19809L23.0925 1.30854ZM41.9821 10.3168L45.9216 17.8914L42.1737 29.4212L38.2944 25.4431L41.9821 10.3168ZM37.569 26.1285L14.0016 30.0627L31.2715 42.7915L41.72 30.3852L37.569 26.1285ZM29.5078 42.7312L12.5408 30.2257L1.9351 27.6363L13.011 40.6166L29.5078 42.7312ZM1.17474 26.4235L4.8006 13.6756L9.97181 21.6298L12.047 29.0781L1.17474 26.4235ZM10.528 20.6545L21.5675 10.4661L22.0801 1.53111L5.30894 12.6266L10.528 20.6545Z" fill="url(#paint0_linear_2506_8968)"/>
<defs>
<linearGradient id="paint0_linear_2506_8968" x1="0" y1="22.1053" x2="47" y2="22.1053" gradientUnits="userSpaceOnUse">
<stop stop-color="#6366F1"/>
<stop offset="0.5" stop-color="#8B5CF6"/>
<stop offset="1" stop-color="#D946EF"/>
</linearGradient>
</defs>
</svg>
